<?xml version="1.0" standalone="no"?>
<!DOCTYPE svg PUBLIC "-//W3C//DTD SVG 20010904//EN"
 "http://www.w3.org/TR/2001/REC-SVG-20010904/DTD/svg10.dtd">
<svg version="1.0" xmlns="http://www.w3.org/2000/svg"
 width="2031.000000pt" height="2031.000000pt" viewBox="0 0 2031.000000 2031.000000"
 preserveAspectRatio="xMidYMid meet">
<metadata>
Created by potrace 1.14, written by Peter Selinger 2001-2017
</metadata>
<g transform="translate(0.000000,2031.000000) scale(0.100000,-0.100000)"
fill="#000000" stroke="none">
<path d="M10726 20303 c-1 -2 -47 -5 -102 -8 -54 -2 -110 -6 -124 -9 -14 -2
-57 -7 -97 -11 -107 -9 -233 -25 -313 -40 -24 -4 -55 -10 -125 -21 -28 -4 -45
-7 -100 -18 -404 -82 -747 -181 -1095 -316 -281 -109 -726 -321 -842 -402 -14
-10 -28 -18 -31 -18 -15 0 -375 -232 -474 -306 -28 -22 -62 -47 -75 -56 -137
-102 -370 -294 -492 -408 -280 -260 -500 -505 -746 -829 -117 -155 -283 -399
-370 -546 -30 -49 -60 -101 -69 -115 -8 -14 -14 -26 -13 -27 1 -2 -14 -29 -33
-62 -18 -33 -36 -69 -40 -80 -3 -11 -20 -32 -38 -47 -34 -28 -28 -28 -197 -9
-197 23 -743 23 -870 1 -14 -2 -51 -7 -84 -11 -32 -4 -68 -8 -80 -10 -11 -2
-41 -7 -66 -10 -45 -5 -72 -9 -145 -20 -22 -3 -54 -8 -72 -10 -18 -2 -36 -6
-40 -8 -4 -3 -25 -8 -46 -11 -132 -21 -619 -162 -742 -215 -11 -5 -51 -21 -90
-36 -159 -63 -450 -197 -465 -214 -3 -3 -32 -19 -65 -36 -33 -16 -61 -33 -63
-37 -2 -5 -8 -8 -13 -8 -6 0 -35 -16 -65 -35 -30 -19 -57 -35 -59 -35 -12 0
-309 -207 -406 -282 -302 -236 -576 -508 -802 -798 -37 -47 -74 -94 -82 -105
-9 -11 -47 -65 -85 -120 -38 -55 -73 -105 -77 -111 -5 -5 -15 -21 -23 -35 -71
-120 -142 -235 -151 -246 -6 -7 -9 -13 -5 -13 3 0 -4 -17 -17 -37 -23 -37
-179 -345 -177 -351 0 -1 -9 -24 -20 -50 -21 -46 -43 -102 -93 -232 -38 -97
-125 -370 -142 -446 -2 -11 -11 -46 -19 -80 -8 -34 -17 -72 -20 -85 -3 -13 -9
-48 -15 -77 -6 -30 -13 -57 -15 -61 -3 -4 -6 -25 -7 -47 -1 -21 -6 -46 -10
-54 -3 -8 -9 -42 -13 -75 -3 -33 -7 -69 -10 -80 -2 -11 -7 -49 -10 -85 -4 -36
-10 -83 -13 -105 -4 -34 -13 -272 -13 -395 -1 -94 8 -384 14 -450 13 -163 18
-210 20 -222 2 -7 7 -35 11 -63 5 -27 10 -52 10 -55 1 -3 5 -23 9 -45 4 -22
12 -53 17 -70 5 -16 10 -46 13 -65 2 -19 7 -42 10 -50 3 -8 8 -26 10 -40 27
-135 90 -360 140 -500 79 -221 289 -663 405 -855 61 -99 155 -240 162 -243 5
-2 9 -8 9 -13 0 -12 159 -226 247 -331 183 -220 365 -315 596 -311 38 1 92 7
120 14 29 7 54 13 57 14 3 0 32 11 65 25 145 58 248 137 334 255 46 65 55 80
85 155 34 84 41 126 40 255 0 86 -5 127 -23 185 -33 106 -84 203 -147 277 -11
12 -26 30 -34 40 -8 10 -33 41 -56 68 -253 311 -462 732 -579 1170 -26 99 -29
114 -50 230 -50 283 -52 825 -4 1117 14 85 16 98 29 153 6 28 14 59 16 70 2
11 13 52 24 90 12 39 23 77 25 85 8 32 84 237 105 285 213 473 414 777 715
1081 147 148 230 221 360 317 50 37 95 70 100 74 113 86 460 279 620 345 105
44 314 120 348 126 4 1 8 2 10 3 1 0 9 2 17 4 8 2 40 10 70 18 46 13 108 27
190 44 19 3 64 11 110 17 19 3 51 8 70 10 19 3 58 8 85 10 28 3 79 8 115 12
134 14 510 10 615 -7 55 -9 123 -19 150 -23 28 -3 61 -8 75 -11 14 -3 45 -8
70 -11 43 -6 60 -9 98 -18 227 -56 356 -63 497 -29 112 27 173 53 252 109 64
45 173 160 173 182 0 6 4 12 8 12 10 0 65 114 116 240 18 47 52 125 75 173 23
49 41 92 41 98 0 5 5 9 10 9 6 0 10 8 10 18 0 10 4 22 9 28 5 5 30 50 56 99
27 50 56 102 67 117 10 14 18 29 18 32 0 3 13 24 28 48 16 24 60 90 97 146 56
85 121 175 192 267 21 27 138 171 143 175 3 3 43 48 90 100 202 225 429 433
671 617 125 95 344 243 359 243 5 0 10 4 10 9 0 5 12 14 28 20 15 6 65 34 112
62 80 47 306 162 413 208 26 12 66 29 90 40 103 46 495 183 557 196 8 2 41 10
72 20 31 9 69 18 84 21 15 3 31 7 34 9 4 2 20 7 36 9 16 3 39 8 52 11 12 3 32
7 45 10 12 3 33 7 47 10 14 3 36 7 50 10 13 2 42 7 65 10 22 3 65 10 95 15 66
11 247 25 445 36 39 2 97 6 130 8 78 7 279 7 330 1 22 -3 65 -8 95 -10 217
-17 266 -22 300 -28 14 -3 54 -8 90 -12 136 -13 243 -33 430 -82 74 -19 143
-36 153 -38 9 -2 21 -6 25 -9 5 -3 19 -7 33 -10 45 -9 330 -107 458 -157 143
-57 478 -222 621 -306 219 -129 539 -354 666 -468 6 -5 40 -35 75 -65 35 -30
125 -116 199 -190 463 -466 791 -938 1010 -1454 23 -54 46 -106 50 -115 21
-39 144 -374 211 -575 53 -158 119 -259 219 -338 47 -37 177 -103 220 -112 14
-3 70 -16 125 -30 55 -13 117 -27 139 -30 21 -4 42 -8 46 -11 3 -2 22 -7 41
-10 199 -35 490 -147 708 -273 106 -61 260 -170 369 -261 388 -327 639 -695
804 -1181 47 -140 87 -305 102 -425 3 -27 9 -66 11 -85 19 -126 25 -388 13
-515 -16 -164 -26 -227 -50 -325 -11 -47 -22 -94 -23 -105 -2 -11 -4 -21 -5
-22 -2 -2 -4 -7 -5 -13 -1 -5 -3 -11 -5 -12 -1 -2 -3 -10 -5 -18 -24 -118
-142 -460 -217 -630 -44 -100 -159 -322 -212 -410 -31 -51 -56 -96 -56 -101 0
-4 -3 -9 -7 -11 -5 -2 -26 -30 -47 -63 -38 -59 -169 -239 -190 -262 -6 -6 -27
-31 -46 -54 -103 -127 -296 -322 -429 -433 -48 -39 -88 -73 -91 -76 -9 -10
-225 -165 -269 -194 -40 -26 -68 -41 -196 -111 -92 -49 -287 -122 -413 -155
-134 -34 -322 -55 -477 -52 -49 1 -1298 2 -2775 3 l-2685 1 -57 -21 c-116 -45
-204 -146 -223 -259 -4 -24 -7 -225 -7 -445 1 -342 3 -409 17 -447 18 -51 58
-115 91 -146 32 -31 84 -67 84 -58 0 3 6 2 13 -4 41 -34 66 -34 2572 -33 2078
0 3295 4 3365 11 8 1 38 6 66 11 28 5 62 12 77 14 106 18 157 28 205 39 9 2
40 9 67 16 28 6 64 15 80 20 17 5 71 21 120 36 167 49 408 142 497 192 18 10
67 36 108 57 41 21 83 46 94 54 10 9 21 16 25 15 9 -2 71 36 246 151 112 73
311 219 380 280 17 15 55 47 85 73 73 62 353 343 410 411 25 29 52 61 61 70 8
9 33 39 55 66 21 28 42 52 45 55 24 22 189 254 295 415 95 144 97 148 216 355
65 111 238 473 238 496 0 8 5 14 10 14 6 0 10 6 10 14 0 7 8 31 17 52 9 22 17
41 18 44 1 3 5 12 8 20 33 80 143 403 151 445 2 11 15 61 29 110 25 87 70 286
82 353 6 38 13 79 19 107 2 11 7 42 10 68 4 27 9 58 11 70 3 11 7 43 10 71 3
28 7 65 10 81 20 125 20 612 0 745 -2 19 -7 60 -10 90 -6 61 -13 122 -20 160
-2 14 -7 41 -9 60 -3 19 -8 46 -11 60 -2 14 -7 39 -11 55 -5 25 -45 198 -59
255 -4 12 -27 95 -39 135 -2 6 -6 17 -9 25 -3 8 -12 38 -20 65 -14 48 -28 86
-100 270 -40 102 -171 367 -238 482 -93 159 -263 402 -372 533 -208 249 -472
501 -712 676 -107 78 -262 184 -271 184 -2 0 -27 15 -57 33 -29 17 -61 37 -72
44 -11 7 -69 37 -130 69 -227 116 -499 225 -729 290 -100 28 -166 68 -166 100
0 8 -4 14 -8 14 -4 0 -18 34 -31 75 -14 42 -28 78 -33 81 -4 3 -8 12 -8 20 0
8 -8 33 -19 57 -10 23 -33 76 -50 117 -18 41 -42 98 -54 125 -38 88 -236 475
-248 485 -3 3 -8 10 -10 15 -2 6 -21 39 -42 75 -155 265 -394 605 -589 835
-110 130 -202 229 -348 375 -155 155 -269 260 -390 360 -41 34 -86 72 -100 84
-97 84 -479 352 -645 453 -292 176 -601 331 -913 458 -147 59 -462 170 -507
178 -11 2 -27 7 -35 10 -33 12 -174 52 -220 62 -8 1 -33 8 -55 13 -22 6 -51
13 -65 16 -14 3 -65 14 -115 26 -101 23 -130 29 -330 64 -169 30 -207 35 -350
50 -136 14 -268 19 -603 20 -194 1 -355 0 -356 -1z"/>
<path d="M8433 17224 c-36 -18 -49 -43 -52 -106 -3 -58 18 -101 60 -118 44
-19 5602 -20 5637 -1 36 19 53 54 53 114 1 60 -17 97 -54 114 -16 8 -891 11
-2818 11 -2450 0 -2799 -1 -2826 -14z"/>
<path d="M7158 16052 c-42 -4 -83 -39 -91 -78 -7 -37 2 -116 15 -132 34 -40
-4 -39 1627 -39 860 0 1575 3 1589 6 37 10 63 50 66 102 4 62 -12 103 -47 124
-28 17 -111 18 -1576 19 -850 1 -1563 0 -1583 -2z"/>
<path d="M11353 16049 c-30 -4 -50 -14 -68 -35 -23 -26 -26 -36 -23 -92 3 -52
9 -67 31 -90 l27 -27 1688 -1 c1839 -2 1730 -5 1754 54 31 78 2 175 -56 188
-37 8 -3293 11 -3353 3z"/>
<path d="M3504 14832 c-37 -5 -68 -57 -70 -115 -1 -74 31 -125 80 -128 12 -1
386 -2 831 -3 888 -3 848 -5 878 56 13 28 15 87 3 134 -4 13 -21 31 -39 41
-30 16 -91 18 -847 18 -448 0 -825 -1 -836 -3z"/>
<path d="M6012 14826 c-22 -12 -52 -46 -53 -60 -9 -95 6 -147 50 -169 21 -10
411 -12 1844 -12 l1819 0 29 33 c25 28 29 40 29 94 0 56 -3 63 -33 92 l-34 31
-1816 0 c-1139 1 -1824 -3 -1835 -9z"/>
<path d="M10641 14824 c-45 -19 -59 -47 -57 -119 1 -56 5 -68 29 -92 l27 -28
2492 0 c2732 0 2537 -5 2563 59 10 25 13 87 6 128 -1 9 -50 58 -59 59 -4 1
-1124 3 -2490 3 -1894 1 -2490 -1 -2511 -10z"/>
<path d="M3479 13643 c-32 -20 -47 -64 -44 -129 1 -39 7 -52 34 -76 l31 -28
725 0 c436 0 734 4 749 10 35 13 58 52 61 103 2 55 -11 92 -42 117 -25 20 -41
20 -757 20 -659 -1 -734 -2 -757 -17z"/>
<path d="M5997 13640 c-52 -41 -59 -153 -12 -199 l25 -26 890 -3 889 -2 32 28
c28 25 31 34 33 92 3 61 1 67 -30 98 l-32 32 -885 0 c-868 0 -885 0 -910 -20z"/>
<path d="M8759 13631 c-16 -16 -30 -40 -30 -53 -5 -94 11 -141 57 -158 16 -6
1532 -10 4092 -10 4047 0 4067 0 4100 20 22 14 35 31 39 53 6 30 7 41 4 98 -1
11 -14 34 -30 50 l-29 29 -4087 0 -4087 0 -29 -29z"/>
<path d="M6537 12844 c-1 -1 -58 -4 -127 -8 -69 -3 -141 -8 -160 -10 -82 -10
-119 -15 -151 -20 -19 -3 -47 -8 -63 -11 -312 -49 -646 -172 -981 -359 -129
-72 -324 -214 -489 -356 -52 -44 -249 -243 -311 -314 -144 -164 -303 -396
-402 -586 -48 -94 -114 -235 -119 -255 -2 -9 -27 -75 -49 -130 -4 -11 -9 -25
-11 -32 -3 -15 -24 -83 -31 -103 -3 -8 -7 -20 -8 -26 -2 -6 -10 -36 -18 -65
-18 -65 -46 -191 -52 -239 -3 -19 -7 -44 -9 -55 -2 -12 -7 -48 -11 -80 -4 -33
-9 -69 -11 -80 -2 -11 -7 -72 -10 -135 -7 -131 -12 -5580 -5 -5594 7 -15 7
-68 -1 -72 -4 -3 -4 -15 1 -27 4 -12 5 -33 1 -47 -3 -14 -3 -39 1 -56 3 -18 3
-38 -2 -45 -4 -7 -5 -17 -2 -22 3 -5 5 -51 4 -101 -1 -96 -1 -101 -1 -168 0
-24 0 -60 0 -82 -1 -21 1 -40 4 -43 2 -3 1 -16 -4 -29 -5 -13 -6 -24 -2 -24 4
0 6 -17 4 -38 -1 -20 -3 -43 -2 -49 0 -7 0 -32 0 -55 0 -24 1 -61 1 -83 0 -22
0 -49 -1 -60 -2 -26 -2 -38 2 -108 2 -31 0 -57 -4 -57 -4 0 -4 -10 0 -23 5
-12 6 -35 2 -52 -3 -16 -3 -41 0 -55 4 -14 4 -34 0 -45 -4 -11 -4 -29 0 -40 4
-11 4 -31 0 -45 -3 -14 -3 -39 1 -56 3 -18 3 -38 -2 -45 -4 -7 -5 -17 -2 -22
3 -5 5 -51 4 -101 -1 -50 -1 -99 -1 -108 0 -33 0 -103 1 -143 0 -22 0 -49 -1
-60 -1 -11 -1 -33 -1 -50 1 -35 1 -125 0 -140 -3 -55 14 -192 30 -238 34 -97
60 -140 136 -224 71 -79 169 -134 300 -170 11 -3 115 -6 230 -8 152 -1 229 2
280 12 222 46 392 219 446 453 7 31 10 778 10 2336 l-1 2291 877 0 c775 0
1097 5 1165 18 11 3 39 6 62 9 63 8 119 17 137 22 9 2 32 7 50 9 50 6 261 62
364 96 360 119 718 324 1010 579 72 63 320 313 375 380 30 36 57 67 60 70 19
18 210 287 210 295 0 3 19 35 42 72 55 91 198 390 198 416 0 7 4 17 9 22 9 11
58 160 91 279 20 72 25 94 35 151 2 11 11 56 19 100 26 141 32 197 42 350 12
195 9 320 -12 570 -6 68 -14 127 -30 208 -9 42 -18 90 -20 105 -3 15 -10 45
-16 67 -9 38 -12 47 -22 94 -2 10 -12 41 -21 67 -9 27 -19 60 -21 73 -12 60
-189 469 -213 491 -4 3 -17 25 -30 50 -91 173 -309 456 -494 642 -154 154
-232 223 -387 341 -150 114 -440 279 -610 347 -123 49 -259 98 -295 106 -5 1
-30 7 -55 15 -68 19 -67 19 -150 38 -47 10 -67 14 -160 30 -105 19 -134 22
-310 37 -69 5 -308 12 -313 8z m198 -1428 c91 -5 140 -12 245 -31 19 -4 67
-16 105 -28 39 -11 73 -21 77 -21 3 -1 10 -4 14 -8 4 -5 14 -8 21 -8 21 0 196
-85 272 -132 259 -162 493 -411 621 -663 41 -79 98 -214 103 -242 2 -10 9 -36
16 -58 6 -22 22 -96 35 -164 21 -108 23 -149 21 -320 -1 -108 -5 -207 -9 -221
-3 -14 -11 -54 -17 -90 -32 -183 -118 -391 -232 -563 -45 -67 -191 -247 -218
-267 -3 -3 -37 -33 -76 -68 -38 -34 -94 -80 -124 -102 -30 -22 -59 -44 -66
-50 -7 -5 -14 -10 -17 -10 -2 0 -35 -19 -72 -41 -75 -46 -170 -91 -254 -121
-60 -21 -193 -58 -225 -63 -11 -1 -42 -6 -70 -10 -27 -4 -59 -10 -70 -12 -11
-3 -435 -6 -943 -7 l-923 -2 4 925 c3 509 6 933 7 941 1 8 10 58 21 110 10 52
20 104 22 115 2 11 7 27 10 35 4 8 13 38 22 65 18 57 20 60 74 175 80 168 182
310 331 458 111 110 145 139 250 210 243 164 506 252 805 268 61 3 112 8 113
9 2 2 9 2 15 0 7 -2 57 -6 112 -9z"/>
<path d="M15704 12479 c-55 -20 -80 -110 -51 -180 28 -67 -18 -64 938 -63 611
1 872 5 892 13 59 23 74 159 22 210 l-25 26 -879 1 c-483 0 -886 -3 -897 -7z"/>
<path d="M9305 12472 c-57 -7 -92 -60 -88 -134 3 -59 15 -84 53 -103 26 -13
353 -15 2914 -13 l2886 3 26 27 c22 21 27 37 30 83 4 78 -17 117 -72 131 -28
7 -5688 12 -5749 6z"/>
<path d="M15675 11270 c-32 -34 -43 -99 -25 -154 24 -73 -28 -69 943 -69 680
1 874 3 893 13 35 19 54 69 50 131 -3 44 -9 58 -34 80 l-30 27 -885 0 -884 1
-28 -29z"/>
<path d="M10053 11277 c-17 -5 -37 -22 -46 -37 -21 -34 -24 -128 -7 -157 31
-50 -19 -47 1130 -49 718 -1 1085 2 1106 9 42 14 64 54 64 117 0 60 -9 80 -47
106 -27 17 -73 18 -1099 19 -590 0 -1085 -4 -1101 -8z"/>
<path d="M12805 11270 c-39 -20 -55 -53 -55 -117 0 -44 5 -58 29 -85 l29 -33
1154 -1 c1253 -1 1191 -3 1217 53 6 13 11 49 11 79 0 48 -4 60 -29 85 -16 16
-40 30 -53 30 -13 1 -529 2 -1148 3 -982 1 -1129 -1 -1155 -14z"/>
<path d="M10050 10118 c-66 -22 -85 -152 -31 -211 l29 -30 2886 0 c3124 0
2922 -3 2951 53 7 14 12 52 12 84 -2 51 -6 61 -33 85 l-31 28 -2879 0 c-1583
0 -2890 -4 -2904 -9z"/>
<path d="M9058 6529 c-153 -23 -300 -111 -381 -227 -17 -26 -32 -49 -32 -52 0
-3 -6 -14 -12 -25 -23 -41 -41 -136 -39 -209 1 -41 5 -78 9 -82 4 -4 7 -16 7
-27 0 -35 64 -147 113 -198 112 -116 247 -173 412 -174 138 0 169 6 265 48
126 55 245 178 284 292 27 78 32 203 11 280 -30 112 -128 235 -239 300 -108
62 -272 93 -398 74z"/>
<path d="M14475 6525 c-86 -19 -179 -69 -237 -126 -63 -62 -91 -105 -118 -183
-18 -54 -19 -106 -17 -1883 l2 -1828 23 -85 c59 -215 181 -393 371 -543 96
-77 228 -150 327 -182 27 -9 56 -19 64 -22 35 -14 165 -41 236 -49 32 -3 163
-6 289 -6 192 -1 241 2 295 17 36 10 68 23 71 28 3 5 9 8 13 7 4 -1 28 12 54
28 149 94 219 224 209 393 -6 117 -45 200 -134 287 -36 34 -69 62 -75 62 -5 0
-22 8 -36 18 -33 22 -83 39 -137 48 -22 3 -43 8 -46 10 -3 2 -99 4 -212 4
l-205 1 -46 29 c-24 16 -50 39 -57 52 -17 30 -20 1777 -4 1779 5 1 127 3 270
4 143 1 275 5 293 9 156 31 288 130 354 263 31 64 33 73 33 178 0 105 -2 113
-34 179 -58 119 -171 212 -306 252 -50 15 -105 18 -335 20 -151 1 -277 2 -280
3 -3 1 -5 200 -6 444 0 408 -2 446 -19 492 -52 138 -160 239 -310 290 -61 21
-220 27 -290 10z"/>
<path d="M7590 5278 c-277 -26 -506 -98 -735 -232 -82 -48 -68 -38 -175 -123
-237 -187 -410 -433 -485 -689 -33 -111 -38 -134 -51 -242 -6 -56 -5 -1983 1
-2017 11 -56 66 -155 111 -200 125 -127 278 -176 469 -151 185 25 349 164 395
335 9 33 12 294 12 994 0 1026 0 1011 54 1120 58 113 222 240 365 281 92 27
97 27 294 31 237 4 261 8 360 55 120 57 200 145 240 264 18 51 23 166 11 229
-19 98 -117 227 -216 283 -101 57 -149 66 -370 68 -113 1 -239 -2 -280 -6z"/>
<path d="M9045 5275 c-116 -24 -183 -59 -262 -136 -57 -56 -106 -144 -122
-219 -6 -27 -10 -590 -10 -1482 1 -1560 -2 -1472 56 -1580 49 -90 199 -203
298 -224 160 -35 313 -12 432 65 98 64 174 164 200 263 3 13 7 677 8 1477 1
1560 3 1502 -50 1599 -100 183 -328 281 -550 237z"/>
<path d="M11828 5285 c-2 -2 -34 -5 -73 -9 -187 -15 -326 -44 -488 -102 -110
-39 -272 -116 -329 -155 -14 -11 -29 -19 -32 -19 -8 0 -177 -127 -221 -165
-255 -224 -402 -452 -484 -755 -20 -73 -27 -116 -37 -230 -8 -87 -7 -1789 1
-1850 26 -209 241 -380 480 -382 45 -1 105 5 135 12 182 42 337 191 366 350 4
25 8 450 10 945 1 808 3 906 18 960 53 190 236 369 461 451 11 4 25 8 30 9 6
2 28 8 50 14 66 17 144 25 250 24 86 -1 128 -7 263 -38 71 -17 227 -108 303
-178 84 -76 166 -210 185 -302 12 -58 13 -160 14 -980 l1 -890 22 -62 c55
-156 214 -286 377 -308 57 -8 169 -9 206 -1 183 37 347 188 380 348 9 45 9
1858 0 1933 -4 33 -12 80 -17 105 -25 109 -31 136 -39 155 -4 11 -20 53 -36
94 -27 69 -124 253 -144 271 -3 3 -28 34 -55 69 -71 94 -212 230 -328 317 -55
42 -108 79 -116 82 -9 3 -34 18 -56 33 -33 22 -136 73 -240 120 -33 14 -207
71 -235 76 -14 2 -43 9 -65 15 -22 6 -51 12 -65 13 -38 4 -112 14 -140 20 -27
6 -347 15 -352 10z"/>
<path d="M16605 5273 c-82 -18 -110 -30 -180 -76 -96 -62 -177 -179 -194 -277
-8 -51 -7 -1833 1 -1911 44 -388 242 -725 583 -994 138 -108 281 -192 441
-258 63 -27 251 -85 294 -92 14 -2 36 -7 50 -10 59 -13 81 -16 215 -31 49 -5
336 -6 385 -1 38 4 162 20 170 22 34 8 70 15 93 19 15 3 54 12 85 22 31 9 62
17 67 19 6 1 17 5 25 8 8 3 40 14 70 25 157 56 347 164 491 277 89 70 240 221
302 303 55 72 141 214 162 268 9 21 22 53 30 69 26 58 57 171 75 275 18 98 19
164 17 1060 l-2 955 -22 48 c-59 127 -168 224 -300 268 -76 25 -213 31 -291
13 -178 -42 -320 -173 -369 -344 -3 -8 -6 -431 -7 -940 l-3 -925 -22 -65 c-35
-101 -65 -149 -146 -234 -122 -127 -277 -208 -455 -235 -64 -10 -284 -9 -347
2 -63 11 -170 47 -214 72 -24 14 -51 28 -59 31 -34 16 -118 83 -166 132 -57
60 -104 134 -137 213 -21 54 -21 56 -27 999 -5 888 -6 948 -24 994 -47 127
-145 224 -283 279 -84 33 -214 42 -308 20z"/>
</g>
</svg>
